<svg width="24" height="24" viewBox="0 0 24 24" fill="none" xmlns="http://www.w3.org/2000/svg">
<g clip-path="url(#clip0_1_187)">
<path d="M7.07799 23.55C6.60499 23.234 6.18499 22.847 5.83399 22.4C5.45099 21.937 5.09599 21.45 4.76999 20.946C4.00399 19.826 3.40499 18.601 2.98999 17.31C2.48999 15.808 2.24699 14.37 2.24699 12.963C2.24699 11.393 2.58699 10.023 3.24899 8.87302C3.73899 7.97302 4.46899 7.22002 5.34899 6.69102C6.19899 6.16102 7.18899 5.87102 8.18899 5.85102C8.53899 5.85102 8.91899 5.90102 9.31899 6.00102C9.60899 6.08102 9.95899 6.21102 10.389 6.37102C10.939 6.58102 11.239 6.71102 11.339 6.74102C11.659 6.86102 11.929 6.91102 12.139 6.91102C12.299 6.91102 12.529 6.86102 12.784 6.78102C12.929 6.73102 13.204 6.64102 13.594 6.47102C13.98 6.33102 14.286 6.21102 14.529 6.12102C14.899 6.01102 15.257 5.91102 15.579 5.86102C15.969 5.80102 16.356 5.78102 16.727 5.81102C17.437 5.86102 18.087 6.01102 18.667 6.23102C19.687 6.64102 20.51 7.28102 21.124 8.19102C20.864 8.35102 20.624 8.53702 20.399 8.74102C19.912 9.17102 19.499 9.68102 19.169 10.246C18.739 11.016 18.519 11.886 18.525 12.766C18.54 13.849 18.815 14.801 19.365 15.626C19.752 16.226 20.269 16.74 20.899 17.162C21.209 17.372 21.481 17.517 21.739 17.612C21.619 17.987 21.487 18.352 21.334 18.712C20.987 19.519 20.574 20.292 20.084 21.022C19.652 21.652 19.312 22.122 19.054 22.432C18.652 22.912 18.264 23.272 17.874 23.529C17.444 23.814 16.939 23.965 16.422 23.965C16.072 23.98 15.722 23.935 15.388 23.838C15.098 23.743 14.812 23.636 14.532 23.515C14.239 23.381 13.936 23.267 13.627 23.175C13.247 23.075 12.857 23.027 12.463 23.028C12.063 23.028 11.673 23.078 11.303 23.173C10.993 23.261 10.693 23.369 10.396 23.498C9.97599 23.673 9.70099 23.788 9.54099 23.838C9.21699 23.934 8.88499 23.992 8.55099 24.013C8.03099 24.013 7.54699 23.863 7.06499 23.563L7.07799 23.55ZM13.932 5.09002C13.252 5.43002 12.606 5.57402 11.959 5.52602C11.859 4.88002 11.959 4.21602 12.229 3.48902C12.469 2.86902 12.789 2.30902 13.229 1.80902C13.689 1.28902 14.239 0.859023 14.859 0.549023C15.519 0.209023 16.149 0.0290234 16.749 -0.000976562C16.829 0.679023 16.749 1.34902 16.499 2.06902C16.271 2.70902 15.931 3.29902 15.499 3.82902C15.064 4.34902 14.524 4.77902 13.913 5.08902L13.932 5.09002Z" fill="white"/>
</g>
<defs>
<clipPath id="clip0_1_187">
<rect width="24" height="24" fill="white"/>
</clipPath>
</defs>
</svg>
