<svg width="540" height="27" viewBox="0 0 540 27" fill="none" xmlns="http://www.w3.org/2000/svg">
<path d="M432.5 13.268C432.5 11.192 432.848 9.572 433.544 8.408C434.252 7.232 435.464 6.644 437.18 6.644C438.896 6.644 440.102 7.232 440.798 8.408C441.506 9.572 441.86 11.192 441.86 13.268C441.86 15.368 441.506 17.012 440.798 18.2C440.102 19.376 438.896 19.964 437.18 19.964C435.464 19.964 434.252 19.376 433.544 18.2C432.848 17.012 432.5 15.368 432.5 13.268ZM439.844 13.268C439.844 12.296 439.778 11.474 439.646 10.802C439.526 10.13 439.274 9.584 438.89 9.164C438.506 8.732 437.936 8.516 437.18 8.516C436.424 8.516 435.854 8.732 435.47 9.164C435.086 9.584 434.828 10.13 434.696 10.802C434.576 11.474 434.516 12.296 434.516 13.268C434.516 14.276 434.576 15.122 434.696 15.806C434.816 16.49 435.068 17.042 435.452 17.462C435.848 17.882 436.424 18.092 437.18 18.092C437.936 18.092 438.506 17.882 438.89 17.462C439.286 17.042 439.544 16.49 439.664 15.806C439.784 15.122 439.844 14.276 439.844 13.268ZM444.031 13.268C444.031 11.192 444.379 9.572 445.075 8.408C445.783 7.232 446.995 6.644 448.711 6.644C450.427 6.644 451.633 7.232 452.329 8.408C453.037 9.572 453.391 11.192 453.391 13.268C453.391 15.368 453.037 17.012 452.329 18.2C451.633 19.376 450.427 19.964 448.711 19.964C446.995 19.964 445.783 19.376 445.075 18.2C444.379 17.012 444.031 15.368 444.031 13.268ZM451.375 13.268C451.375 12.296 451.309 11.474 451.177 10.802C451.057 10.13 450.805 9.584 450.421 9.164C450.037 8.732 449.467 8.516 448.711 8.516C447.955 8.516 447.385 8.732 447.001 9.164C446.617 9.584 446.359 10.13 446.227 10.802C446.107 11.474 446.047 12.296 446.047 13.268C446.047 14.276 446.107 15.122 446.227 15.806C446.347 16.49 446.599 17.042 446.983 17.462C447.379 17.882 447.955 18.092 448.711 18.092C449.467 18.092 450.037 17.882 450.421 17.462C450.817 17.042 451.075 16.49 451.195 15.806C451.315 15.122 451.375 14.276 451.375 13.268ZM456.66 20.126C456.288 20.126 455.976 20 455.724 19.748C455.472 19.496 455.346 19.184 455.346 18.812C455.346 18.44 455.472 18.128 455.724 17.876C455.976 17.624 456.288 17.498 456.66 17.498C457.02 17.498 457.326 17.624 457.578 17.876C457.83 18.128 457.956 18.44 457.956 18.812C457.956 19.184 457.83 19.496 457.578 19.748C457.326 20 457.02 20.126 456.66 20.126ZM456.66 12.566C456.288 12.566 455.976 12.44 455.724 12.188C455.472 11.936 455.346 11.624 455.346 11.252C455.346 10.88 455.472 10.568 455.724 10.316C455.976 10.064 456.288 9.938 456.66 9.938C457.02 9.938 457.326 10.064 457.578 10.316C457.83 10.568 457.956 10.88 457.956 11.252C457.956 11.624 457.83 11.936 457.578 12.188C457.326 12.44 457.02 12.566 456.66 12.566ZM459.723 17.264V15.716L465.771 7.04H468.255V15.482H469.929V17.264H468.255V20H466.239V17.264H459.723ZM466.329 9.128L462.081 15.482H466.329V9.128ZM479.945 8.462L474.941 20H472.871L477.929 8.678H471.269V6.932H479.945V8.462ZM489.585 12.62V14.348H482.187V12.62H489.585ZM492.23 13.268C492.23 11.192 492.578 9.572 493.274 8.408C493.982 7.232 495.194 6.644 496.91 6.644C498.626 6.644 499.832 7.232 500.528 8.408C501.236 9.572 501.59 11.192 501.59 13.268C501.59 15.368 501.236 17.012 500.528 18.2C499.832 19.376 498.626 19.964 496.91 19.964C495.194 19.964 493.982 19.376 493.274 18.2C492.578 17.012 492.23 15.368 492.23 13.268ZM499.574 13.268C499.574 12.296 499.508 11.474 499.376 10.802C499.256 10.13 499.004 9.584 498.62 9.164C498.236 8.732 497.666 8.516 496.91 8.516C496.154 8.516 495.584 8.732 495.2 9.164C494.816 9.584 494.558 10.13 494.426 10.802C494.306 11.474 494.246 12.296 494.246 13.268C494.246 14.276 494.306 15.122 494.426 15.806C494.546 16.49 494.798 17.042 495.182 17.462C495.578 17.882 496.154 18.092 496.91 18.092C497.666 18.092 498.236 17.882 498.62 17.462C499.016 17.042 499.274 16.49 499.394 15.806C499.514 15.122 499.574 14.276 499.574 13.268ZM503.726 10.118C503.798 9.002 504.224 8.132 505.004 7.508C505.796 6.884 506.804 6.572 508.028 6.572C508.868 6.572 509.594 6.722 510.206 7.022C510.818 7.322 511.28 7.73 511.592 8.246C511.904 8.762 512.06 9.344 512.06 9.992C512.06 10.736 511.862 11.372 511.466 11.9C511.07 12.428 510.596 12.782 510.044 12.962V13.034C510.752 13.25 511.304 13.646 511.7 14.222C512.096 14.786 512.294 15.512 512.294 16.4C512.294 17.108 512.132 17.738 511.808 18.29C511.484 18.842 511.004 19.28 510.368 19.604C509.732 19.916 508.97 20.072 508.082 20.072C506.786 20.072 505.718 19.742 504.878 19.082C504.05 18.41 503.606 17.45 503.546 16.202H505.526C505.574 16.838 505.82 17.36 506.264 17.768C506.708 18.164 507.308 18.362 508.064 18.362C508.796 18.362 509.36 18.164 509.756 17.768C510.152 17.36 510.35 16.838 510.35 16.202C510.35 15.362 510.08 14.768 509.54 14.42C509.012 14.06 508.196 13.88 507.092 13.88H506.624V12.188H507.11C508.082 12.176 508.82 12.014 509.324 11.702C509.84 11.39 510.098 10.898 510.098 10.226C510.098 9.65 509.912 9.194 509.54 8.858C509.168 8.51 508.64 8.336 507.956 8.336C507.284 8.336 506.762 8.51 506.39 8.858C506.018 9.194 505.796 9.614 505.724 10.118H503.726ZM515.547 20.126C515.175 20.126 514.863 20 514.611 19.748C514.359 19.496 514.233 19.184 514.233 18.812C514.233 18.44 514.359 18.128 514.611 17.876C514.863 17.624 515.175 17.498 515.547 17.498C515.907 17.498 516.213 17.624 516.465 17.876C516.717 18.128 516.843 18.44 516.843 18.812C516.843 19.184 516.717 19.496 516.465 19.748C516.213 20 515.907 20.126 515.547 20.126ZM515.547 12.566C515.175 12.566 514.863 12.44 514.611 12.188C514.359 11.936 514.233 11.624 514.233 11.252C514.233 10.88 514.359 10.568 514.611 10.316C514.863 10.064 515.175 9.938 515.547 9.938C515.907 9.938 516.213 10.064 516.465 10.316C516.717 10.568 516.843 10.88 516.843 11.252C516.843 11.624 516.717 11.936 516.465 12.188C516.213 12.44 515.907 12.566 515.547 12.566ZM518.825 10.118C518.897 9.002 519.323 8.132 520.103 7.508C520.895 6.884 521.903 6.572 523.127 6.572C523.967 6.572 524.693 6.722 525.305 7.022C525.917 7.322 526.379 7.73 526.691 8.246C527.003 8.762 527.159 9.344 527.159 9.992C527.159 10.736 526.961 11.372 526.565 11.9C526.169 12.428 525.695 12.782 525.143 12.962V13.034C525.851 13.25 526.403 13.646 526.799 14.222C527.195 14.786 527.393 15.512 527.393 16.4C527.393 17.108 527.231 17.738 526.907 18.29C526.583 18.842 526.103 19.28 525.467 19.604C524.831 19.916 524.069 20.072 523.181 20.072C521.885 20.072 520.817 19.742 519.977 19.082C519.149 18.41 518.705 17.45 518.645 16.202H520.625C520.673 16.838 520.919 17.36 521.363 17.768C521.807 18.164 522.407 18.362 523.163 18.362C523.895 18.362 524.459 18.164 524.855 17.768C525.251 17.36 525.449 16.838 525.449 16.202C525.449 15.362 525.179 14.768 524.639 14.42C524.111 14.06 523.295 13.88 522.191 13.88H521.723V12.188H522.209C523.181 12.176 523.919 12.014 524.423 11.702C524.939 11.39 525.197 10.898 525.197 10.226C525.197 9.65 525.011 9.194 524.639 8.858C524.267 8.51 523.739 8.336 523.055 8.336C522.383 8.336 521.861 8.51 521.489 8.858C521.117 9.194 520.895 9.614 520.823 10.118H518.825ZM529.549 13.268C529.549 11.192 529.897 9.572 530.593 8.408C531.301 7.232 532.513 6.644 534.229 6.644C535.945 6.644 537.151 7.232 537.847 8.408C538.555 9.572 538.909 11.192 538.909 13.268C538.909 15.368 538.555 17.012 537.847 18.2C537.151 19.376 535.945 19.964 534.229 19.964C532.513 19.964 531.301 19.376 530.593 18.2C529.897 17.012 529.549 15.368 529.549 13.268ZM536.893 13.268C536.893 12.296 536.827 11.474 536.695 10.802C536.575 10.13 536.323 9.584 535.939 9.164C535.555 8.732 534.985 8.516 534.229 8.516C533.473 8.516 532.903 8.732 532.519 9.164C532.135 9.584 531.877 10.13 531.745 10.802C531.625 11.474 531.565 12.296 531.565 13.268C531.565 14.276 531.625 15.122 531.745 15.806C531.865 16.49 532.117 17.042 532.501 17.462C532.897 17.882 533.473 18.092 534.229 18.092C534.985 18.092 535.555 17.882 535.939 17.462C536.335 17.042 536.593 16.49 536.713 15.806C536.833 15.122 536.893 14.276 536.893 13.268Z" fill="white"/>
<path d="M22 14.5L8.14564e-07 27L1.90735e-06 2L22 14.5Z" fill="white"/>
<line x1="67" y1="13" x2="384" y2="13" stroke="white" stroke-width="2"/>
<line x1="67" y1="13" x2="137" y2="13" stroke="#7A66CC" stroke-width="2"/>
<line x1="137" y1="4" x2="137" y2="24" stroke="#7A66CC" stroke-width="2"/>
</svg>
