<svg width="1110" height="27" viewBox="0 0 1110 27" fill="none" xmlns="http://www.w3.org/2000/svg">
<path d="M1002.82 13.268C1002.82 11.192 1003.16 9.572 1003.86 8.408C1004.57 7.232 1005.78 6.644 1007.5 6.644C1009.21 6.644 1010.42 7.232 1011.11 8.408C1011.82 9.572 1012.18 11.192 1012.18 13.268C1012.18 15.368 1011.82 17.012 1011.11 18.2C1010.42 19.376 1009.21 19.964 1007.5 19.964C1005.78 19.964 1004.57 19.376 1003.86 18.2C1003.16 17.012 1002.82 15.368 1002.82 13.268ZM1010.16 13.268C1010.16 12.296 1010.09 11.474 1009.96 10.802C1009.84 10.13 1009.59 9.584 1009.21 9.164C1008.82 8.732 1008.25 8.516 1007.5 8.516C1006.74 8.516 1006.17 8.732 1005.79 9.164C1005.4 9.584 1005.14 10.13 1005.01 10.802C1004.89 11.474 1004.83 12.296 1004.83 13.268C1004.83 14.276 1004.89 15.122 1005.01 15.806C1005.13 16.49 1005.38 17.042 1005.77 17.462C1006.16 17.882 1006.74 18.092 1007.5 18.092C1008.25 18.092 1008.82 17.882 1009.21 17.462C1009.6 17.042 1009.86 16.49 1009.98 15.806C1010.1 15.122 1010.16 14.276 1010.16 13.268ZM1014.35 13.268C1014.35 11.192 1014.7 9.572 1015.39 8.408C1016.1 7.232 1017.31 6.644 1019.03 6.644C1020.74 6.644 1021.95 7.232 1022.65 8.408C1023.35 9.572 1023.71 11.192 1023.71 13.268C1023.71 15.368 1023.35 17.012 1022.65 18.2C1021.95 19.376 1020.74 19.964 1019.03 19.964C1017.31 19.964 1016.1 19.376 1015.39 18.2C1014.7 17.012 1014.35 15.368 1014.35 13.268ZM1021.69 13.268C1021.69 12.296 1021.63 11.474 1021.49 10.802C1021.37 10.13 1021.12 9.584 1020.74 9.164C1020.35 8.732 1019.78 8.516 1019.03 8.516C1018.27 8.516 1017.7 8.732 1017.32 9.164C1016.93 9.584 1016.68 10.13 1016.54 10.802C1016.42 11.474 1016.36 12.296 1016.36 13.268C1016.36 14.276 1016.42 15.122 1016.54 15.806C1016.66 16.49 1016.92 17.042 1017.3 17.462C1017.7 17.882 1018.27 18.092 1019.03 18.092C1019.78 18.092 1020.35 17.882 1020.74 17.462C1021.13 17.042 1021.39 16.49 1021.51 15.806C1021.63 15.122 1021.69 14.276 1021.69 13.268ZM1026.98 20.126C1026.6 20.126 1026.29 20 1026.04 19.748C1025.79 19.496 1025.66 19.184 1025.66 18.812C1025.66 18.44 1025.79 18.128 1026.04 17.876C1026.29 17.624 1026.6 17.498 1026.98 17.498C1027.34 17.498 1027.64 17.624 1027.89 17.876C1028.15 18.128 1028.27 18.44 1028.27 18.812C1028.27 19.184 1028.15 19.496 1027.89 19.748C1027.64 20 1027.34 20.126 1026.98 20.126ZM1026.98 12.566C1026.6 12.566 1026.29 12.44 1026.04 12.188C1025.79 11.936 1025.66 11.624 1025.66 11.252C1025.66 10.88 1025.79 10.568 1026.04 10.316C1026.29 10.064 1026.6 9.938 1026.98 9.938C1027.34 9.938 1027.64 10.064 1027.89 10.316C1028.15 10.568 1028.27 10.88 1028.27 11.252C1028.27 11.624 1028.15 11.936 1027.89 12.188C1027.64 12.44 1027.34 12.566 1026.98 12.566ZM1031.42 17.21C1032.58 16.214 1033.48 15.398 1034.14 14.762C1034.81 14.114 1035.37 13.442 1035.82 12.746C1036.26 12.05 1036.48 11.354 1036.48 10.658C1036.48 9.938 1036.31 9.374 1035.96 8.966C1035.62 8.558 1035.09 8.354 1034.36 8.354C1033.65 8.354 1033.1 8.582 1032.7 9.038C1032.32 9.482 1032.11 10.082 1032.09 10.838H1030.11C1030.15 9.47 1030.55 8.426 1031.33 7.706C1032.13 6.974 1033.13 6.608 1034.34 6.608C1035.65 6.608 1036.67 6.968 1037.4 7.688C1038.14 8.408 1038.52 9.368 1038.52 10.568C1038.52 11.432 1038.29 12.266 1037.85 13.07C1037.42 13.862 1036.9 14.576 1036.28 15.212C1035.68 15.836 1034.92 16.562 1033.98 17.39L1033.17 18.11H1038.88V19.82H1030.13V18.326L1031.42 17.21ZM1041.81 17.21C1042.97 16.214 1043.87 15.398 1044.53 14.762C1045.2 14.114 1045.76 13.442 1046.21 12.746C1046.65 12.05 1046.87 11.354 1046.87 10.658C1046.87 9.938 1046.7 9.374 1046.35 8.966C1046.01 8.558 1045.48 8.354 1044.75 8.354C1044.04 8.354 1043.49 8.582 1043.09 9.038C1042.71 9.482 1042.5 10.082 1042.48 10.838H1040.5C1040.54 9.47 1040.94 8.426 1041.72 7.706C1042.52 6.974 1043.52 6.608 1044.73 6.608C1046.04 6.608 1047.06 6.968 1047.79 7.688C1048.53 8.408 1048.91 9.368 1048.91 10.568C1048.91 11.432 1048.68 12.266 1048.24 13.07C1047.81 13.862 1047.29 14.576 1046.67 15.212C1046.07 15.836 1045.31 16.562 1044.37 17.39L1043.56 18.11H1049.27V19.82H1040.52V18.326L1041.81 17.21ZM1058.95 12.62V14.348H1051.55V12.62H1058.95ZM1061.6 13.268C1061.6 11.192 1061.95 9.572 1062.64 8.408C1063.35 7.232 1064.56 6.644 1066.28 6.644C1067.99 6.644 1069.2 7.232 1069.9 8.408C1070.6 9.572 1070.96 11.192 1070.96 13.268C1070.96 15.368 1070.6 17.012 1069.9 18.2C1069.2 19.376 1067.99 19.964 1066.28 19.964C1064.56 19.964 1063.35 19.376 1062.64 18.2C1061.95 17.012 1061.6 15.368 1061.6 13.268ZM1068.94 13.268C1068.94 12.296 1068.88 11.474 1068.74 10.802C1068.62 10.13 1068.37 9.584 1067.99 9.164C1067.6 8.732 1067.03 8.516 1066.28 8.516C1065.52 8.516 1064.95 8.732 1064.57 9.164C1064.18 9.584 1063.93 10.13 1063.79 10.802C1063.67 11.474 1063.61 12.296 1063.61 13.268C1063.61 14.276 1063.67 15.122 1063.79 15.806C1063.91 16.49 1064.17 17.042 1064.55 17.462C1064.95 17.882 1065.52 18.092 1066.28 18.092C1067.03 18.092 1067.6 17.882 1067.99 17.462C1068.38 17.042 1068.64 16.49 1068.76 15.806C1068.88 15.122 1068.94 14.276 1068.94 13.268ZM1074.26 17.21C1075.41 16.214 1076.32 15.398 1076.98 14.762C1077.65 14.114 1078.21 13.442 1078.65 12.746C1079.1 12.05 1079.32 11.354 1079.32 10.658C1079.32 9.938 1079.15 9.374 1078.8 8.966C1078.46 8.558 1077.93 8.354 1077.2 8.354C1076.49 8.354 1075.94 8.582 1075.54 9.038C1075.16 9.482 1074.95 10.082 1074.93 10.838H1072.95C1072.98 9.47 1073.39 8.426 1074.17 7.706C1074.96 6.974 1075.97 6.608 1077.18 6.608C1078.49 6.608 1079.51 6.968 1080.24 7.688C1080.98 8.408 1081.35 9.368 1081.35 10.568C1081.35 11.432 1081.13 12.266 1080.69 13.07C1080.26 13.862 1079.73 14.576 1079.12 15.212C1078.52 15.836 1077.75 16.562 1076.82 17.39L1076.01 18.11H1081.71V19.82H1072.97V18.326L1074.26 17.21ZM1084.62 20.126C1084.24 20.126 1083.93 20 1083.68 19.748C1083.43 19.496 1083.3 19.184 1083.3 18.812C1083.3 18.44 1083.43 18.128 1083.68 17.876C1083.93 17.624 1084.24 17.498 1084.62 17.498C1084.98 17.498 1085.28 17.624 1085.53 17.876C1085.79 18.128 1085.91 18.44 1085.91 18.812C1085.91 19.184 1085.79 19.496 1085.53 19.748C1085.28 20 1084.98 20.126 1084.62 20.126ZM1084.62 12.566C1084.24 12.566 1083.93 12.44 1083.68 12.188C1083.43 11.936 1083.3 11.624 1083.3 11.252C1083.3 10.88 1083.43 10.568 1083.68 10.316C1083.93 10.064 1084.24 9.938 1084.62 9.938C1084.98 9.938 1085.28 10.064 1085.53 10.316C1085.79 10.568 1085.91 10.88 1085.91 11.252C1085.91 11.624 1085.79 11.936 1085.53 12.188C1085.28 12.44 1084.98 12.566 1084.62 12.566ZM1096.39 8.642H1090.36V12.224C1090.61 11.888 1090.98 11.606 1091.48 11.378C1091.98 11.15 1092.51 11.036 1093.08 11.036C1094.09 11.036 1094.9 11.252 1095.53 11.684C1096.16 12.116 1096.61 12.662 1096.88 13.322C1097.15 13.982 1097.29 14.678 1097.29 15.41C1097.29 16.298 1097.12 17.09 1096.77 17.786C1096.43 18.47 1095.92 19.01 1095.24 19.406C1094.57 19.802 1093.74 20 1092.75 20C1091.45 20 1090.4 19.676 1089.6 19.028C1088.81 18.38 1088.34 17.522 1088.18 16.454H1090.18C1090.31 17.018 1090.61 17.468 1091.06 17.804C1091.52 18.128 1092.09 18.29 1092.77 18.29C1093.62 18.29 1094.26 18.032 1094.68 17.516C1095.11 17 1095.33 16.316 1095.33 15.464C1095.33 14.6 1095.11 13.94 1094.68 13.484C1094.25 13.016 1093.61 12.782 1092.77 12.782C1092.18 12.782 1091.69 12.932 1091.28 13.232C1090.88 13.52 1090.59 13.916 1090.41 14.42H1088.47V6.842H1096.39V8.642ZM1099.17 17.264V15.716L1105.22 7.04H1107.71V15.482H1109.38V17.264H1107.71V20H1105.69V17.264H1099.17ZM1105.78 9.128L1101.53 15.482H1105.78V9.128Z" fill="white"/>
<path d="M22 14.5L8.14564e-07 27L1.90735e-06 2L22 14.5Z" fill="white"/>
<line x1="67" y1="13" x2="954" y2="13" stroke="white" stroke-width="2"/>
<line x1="67" y1="13" x2="137" y2="13" stroke="#7A66CC" stroke-width="2"/>
<line x1="137" y1="4" x2="137" y2="24" stroke="#7A66CC" stroke-width="2"/>
</svg>
