<svg width="155" height="31" viewBox="0 0 155 31" fill="none" xmlns="http://www.w3.org/2000/svg">
<path d="M7.27252 15.5559L3.76463 18.954L0.259766 15.5559L3.76463 12.1578L7.27252 15.5559ZM15.777 7.30461L21.7831 13.1308L25.288 9.73266L15.777 0.511353L6.26594 9.73266L9.7708 13.1308L15.777 7.30461ZM27.7923 12.1578L24.2875 15.5559L27.7923 18.954L31.2942 15.5559L27.7923 12.1578ZM15.777 23.8071L9.7708 17.9839L6.26594 21.3791L15.777 30.6004L25.288 21.3791L21.7831 17.9839L15.777 23.8071ZM15.777 18.954L19.2818 15.5559L15.777 12.1578L12.2721 15.5559L15.777 18.954ZM52.766 19.2803V19.2332C52.766 17.0168 51.5532 15.9086 49.5795 15.1796C50.7922 14.5182 51.817 13.4806 51.817 11.6198V11.5728C51.817 8.98014 49.6765 7.30461 46.1989 7.30461H38.3039V23.8071H46.399C50.2404 23.8071 52.7721 22.2992 52.7721 19.2803H52.766ZM48.0969 12.2254C48.0969 13.4512 47.0509 13.9715 45.3985 13.9715H41.9513V10.4881H45.6471C47.2267 10.4881 48.1029 11.0995 48.1029 12.1842L48.0969 12.2254ZM49.0459 18.8276C49.0459 20.0534 48.0484 20.6178 46.393 20.6178H41.9513V16.9933H46.2778C48.2 16.9933 49.0519 17.6782 49.0519 18.7864L49.0459 18.8276ZM60.6337 23.8071V7.30461H56.8772V23.8071H60.6337ZM80.7624 23.8071V7.30461H77.0544V17.4666L69.0806 7.30461H65.6273V23.8071H69.3231V13.316L77.5638 23.8071H80.7624ZM101.504 23.8071L94.1967 7.18703H90.7434L83.4517 23.8071H87.2689L88.8303 20.1063H96.028L97.5834 23.8071H101.504ZM94.697 16.8992H90.1613L92.4231 11.5493L94.697 16.8992ZM119.352 23.8071V7.30461H115.644V17.4666L107.667 7.30461H104.217V23.8071H107.91V13.316L116.154 23.8071H119.352ZM138.681 21.1439L136.301 18.8099C134.963 19.9858 133.772 20.7412 131.825 20.7412C128.909 20.7412 126.89 18.3896 126.89 15.5559V15.5088C126.89 12.681 128.957 10.3705 131.825 10.3705C133.526 10.3705 134.857 11.076 136.179 12.2313L138.553 9.56805C136.974 8.06007 135.054 7.02242 131.844 7.02242C126.617 7.02242 122.969 10.8644 122.969 15.5471V15.5941C122.969 20.3326 126.689 24.0805 131.698 24.0805C134.976 24.0893 136.919 22.9576 138.668 21.1439H138.681ZM154.659 23.8071V20.5737H145.405V17.1021H153.431V13.8686H145.405V10.5352H154.525V7.30167H141.685V23.8042L154.659 23.8071Z" fill="#F0B90B"/>
</svg>
