<svg width="150" height="27" viewBox="0 0 150 27" fill="none" xmlns="http://www.w3.org/2000/svg">
<path d="M30.2449 7.74311C24.816 7.74311 20.574 11.7388 20.574 17.0879C20.574 22.4369 24.7088 26.3984 30.2449 26.3984C35.781 26.3984 39.9877 22.3685 39.9877 17.0537C39.9877 11.773 35.8529 7.74311 30.2449 7.74311ZM30.2802 22.5421C27.1886 22.5421 24.9231 20.2142 24.9231 17.0879C24.9231 13.926 27.152 11.5994 30.2435 11.5994C33.3718 11.5994 35.6359 13.9615 35.6359 17.0879C35.6359 20.2142 33.3718 22.5421 30.2802 22.5421ZM41.1733 11.8072H43.8701V26.0512H48.184V8.09033H41.1733V11.8072ZM9.71751 11.5994C11.983 11.5994 13.7804 12.9541 14.4627 14.969H19.0289C18.2014 10.6616 14.5346 7.74311 9.75414 7.74311C4.3252 7.74311 0.083252 11.7388 0.083252 17.0879C0.083252 22.4369 4.21803 26.3984 9.75414 26.3984C14.4275 26.3984 18.1661 23.4799 18.9936 19.137H14.4641C13.817 21.1519 12.0196 22.5421 9.75414 22.5421C6.62592 22.5421 4.43372 20.2142 4.43372 17.0879C4.43237 13.9273 6.58929 11.5994 9.71751 11.5994ZM123.139 15.3517L119.976 14.9006C118.466 14.6928 117.387 14.2062 117.387 13.0593C117.387 11.8085 118.79 11.1838 120.695 11.1838C122.78 11.1838 124.11 12.0518 124.398 13.4762H128.568C128.1 9.86327 125.224 7.74443 120.803 7.74443C116.237 7.74443 113.217 10.0027 113.217 13.1987C113.217 16.2553 115.195 18.0282 119.185 18.5833L122.348 19.0344C123.895 19.2422 124.757 19.8341 124.757 20.9454C124.757 22.3698 123.248 22.9604 121.163 22.9604C118.61 22.9604 117.172 21.9529 116.956 20.4246H112.714C113.11 23.9337 115.949 26.3997 121.126 26.3997C125.836 26.3997 128.963 24.3151 128.963 20.7363C128.963 17.5403 126.697 15.8726 123.139 15.3517ZM46.0271 0.69082C44.4453 0.69082 43.2583 1.80219 43.2583 3.3305C43.2583 4.8588 44.444 5.97018 46.0271 5.97018C47.6088 5.97018 48.7958 4.8588 48.7958 3.3305C48.7944 1.80219 47.6088 0.69082 46.0271 0.69082ZM109.335 14.2391C109.335 10.3486 106.89 7.74311 101.714 7.74311C96.8246 7.74311 94.0925 10.1408 93.5526 13.8234H97.8312C98.0469 12.399 99.1973 11.218 101.642 11.218C103.835 11.218 104.914 12.1557 104.914 13.3026C104.914 14.7967 102.936 15.1781 100.491 15.4215C97.1841 15.7687 93.086 16.88 93.086 21.0493C93.086 24.2809 95.5671 26.3642 99.5215 26.3642C102.613 26.3642 104.554 25.1134 105.526 23.1327C105.669 24.9043 107.035 26.0512 108.941 26.0512H111.458V22.3343H109.336V14.2391H109.335ZM105.091 18.7556C105.091 21.1532 102.935 22.9249 100.31 22.9249C98.6913 22.9249 97.3252 22.2646 97.3252 20.8757C97.3252 19.1041 99.5188 18.6175 101.532 18.4097C103.473 18.2361 104.552 17.8191 105.091 17.0195V18.7556ZM82.1915 7.74311C79.7822 7.74311 77.7691 8.71639 76.3312 10.3486V0.517212H72.0173V26.0525H76.2593V23.6903C77.6972 25.3922 79.747 26.3997 82.1915 26.3997C87.3681 26.3997 91.2872 22.4396 91.2872 17.0892C91.2872 11.7388 87.2975 7.74311 82.1915 7.74311ZM81.5444 22.5421C78.4528 22.5421 76.1874 20.2142 76.1874 17.0879C76.1874 13.9615 78.4881 11.5994 81.5797 11.5994C84.7079 11.5994 86.9001 13.9273 86.9001 17.0879C86.9014 20.2155 84.636 22.5421 81.5444 22.5421ZM61.7007 7.74311C58.8967 7.74311 57.0626 8.85449 55.9842 10.4183V8.09033H51.7056V26.0512H56.0195V16.2895C56.0195 13.5446 57.8169 11.5994 60.4771 11.5994C62.9582 11.5994 64.5033 13.3013 64.5033 15.7687V26.0525H68.8172V15.457C68.8186 10.9391 66.4107 7.74311 61.7007 7.74311ZM149.525 16.4973C149.525 11.3561 145.643 7.74311 140.43 7.74311C134.894 7.74311 130.831 11.773 130.831 17.0879C130.831 22.6816 135.181 26.3984 140.502 26.3984C144.996 26.3984 148.519 23.8271 149.417 20.18H144.923C144.276 21.778 142.694 22.6816 140.572 22.6816C137.803 22.6816 135.718 21.0138 135.252 18.0953H149.524V16.4973H149.525ZM135.505 15.1084C136.189 12.6068 138.13 11.3916 140.359 11.3916C142.804 11.3916 144.673 12.7463 145.104 15.1084H135.505Z" fill="#0052FF"/>
</svg>
