<svg width="80" height="80" viewBox="0 0 80 80" fill="none" xmlns="http://www.w3.org/2000/svg">
<circle cx="40" cy="40" r="40" fill="#1E50FF"/>
<path d="M46.1084 27.8604C42.0744 27.0465 37.9259 27.0465 33.8919 27.8604C31.3653 28.3702 29.332 30.3048 28.6345 32.8627L28.5751 33.0804C27.753 36.0953 27.753 39.2859 28.5751 42.3008L28.6345 42.5184C29.332 45.0763 31.3653 47.0109 33.8919 47.5207C35.5892 47.8632 37.3067 48.0615 39.0275 48.1158V50.7421H36.758C36.2208 50.7421 35.7853 51.1916 35.7853 51.746C35.7853 52.3005 36.2208 52.75 36.758 52.75H43.2423C43.7795 52.75 44.215 52.3005 44.215 51.746C44.215 51.1916 43.7795 50.7421 43.2423 50.7421H40.9728V48.1158C42.6936 48.0615 44.4111 47.8632 46.1084 47.5207C48.635 47.0109 50.6683 45.0763 51.3658 42.5184L51.4252 42.3007C52.2474 39.2859 52.2474 36.0953 51.4252 33.0804L51.3658 32.8627C50.6683 30.3048 48.635 28.3702 46.1084 27.8604Z" fill="white"/>
</svg>
