<svg width="165" height="30" viewBox="0 0 165 30" fill="none" xmlns="http://www.w3.org/2000/svg">
<path d="M145.184 15.1598C144.336 14.5994 143.412 14.2258 142.487 13.7401C141.909 13.4413 141.292 13.1424 140.791 12.7314C139.944 12.0589 140.098 10.7139 141.023 10.1162C142.294 9.29424 144.414 9.74256 144.645 11.4238C144.645 11.4611 144.683 11.4985 144.722 11.4985H146.649C146.687 11.4985 146.726 11.4611 146.726 11.4238C146.61 10.2656 146.148 9.29423 145.3 8.6591C144.491 8.06133 143.566 7.76245 142.564 7.76245C137.477 7.76245 137.015 12.9929 139.751 14.6368C140.059 14.8236 142.757 16.1312 143.72 16.729C144.683 17.2894 144.953 18.3355 144.568 19.1574C144.182 19.9046 143.219 20.4277 142.256 20.353C141.177 20.2782 140.367 19.7178 140.059 18.8585C140.021 18.7091 139.982 18.4102 139.982 18.2608C139.982 18.2234 139.944 18.1861 139.905 18.1861H137.824C137.786 18.1861 137.747 18.2234 137.747 18.2608C137.747 19.7178 138.132 20.5398 139.134 21.287C140.098 21.9968 141.138 22.2957 142.256 22.2957C145.107 22.2957 146.571 20.7266 146.88 19.1201C147.111 17.5509 146.649 16.1312 145.184 15.1598Z" fill="#8F9CA9"/>
<path d="M54.3584 8.06116H53.4336H52.4317C52.3932 8.06116 52.3546 8.09851 52.3546 8.09851L50.6206 13.5905C50.5821 13.6653 50.505 13.6653 50.4665 13.5905L48.7324 8.09851C48.7324 8.06115 48.6939 8.06116 48.6553 8.06116H47.6534H46.7286H45.4955C45.457 8.06116 45.4185 8.09852 45.4185 8.13588V22.1462C45.4185 22.1835 45.457 22.2209 45.4955 22.2209H47.5764C47.6149 22.2209 47.6534 22.1835 47.6534 22.1462V11.4983C47.6534 11.4236 47.7691 11.3863 47.8076 11.461L49.5416 16.9904L49.6572 17.364C49.6572 17.4013 49.6958 17.4014 49.7343 17.4014H51.3527C51.3913 17.4014 51.4298 17.364 51.4298 17.364L51.5454 16.9904L53.2795 11.461C53.318 11.3863 53.4336 11.3863 53.4336 11.4983V22.1462C53.4336 22.1835 53.4721 22.2209 53.5107 22.2209H55.5915C55.63 22.2209 55.6686 22.1835 55.6686 22.1462V8.13588C55.6686 8.09852 55.63 8.06116 55.5915 8.06116H54.3584Z" fill="#8F9CA9"/>
<path d="M113.162 8.06116C113.123 8.06116 113.085 8.09851 113.085 8.09851L111.351 13.5905C111.312 13.6653 111.235 13.6653 111.197 13.5905L109.463 8.09851C109.463 8.06115 109.424 8.06116 109.386 8.06116H106.187C106.149 8.06116 106.11 8.09852 106.11 8.13588V22.1462C106.11 22.1835 106.149 22.2209 106.187 22.2209H108.268C108.307 22.2209 108.345 22.1835 108.345 22.1462V11.4983C108.345 11.4236 108.461 11.3863 108.499 11.461L110.233 16.9904L110.349 17.364C110.349 17.4013 110.387 17.4014 110.426 17.4014H112.044C112.083 17.4014 112.121 17.364 112.121 17.364L112.237 16.9904L113.971 11.461C114.01 11.3863 114.125 11.3863 114.125 11.4983V22.1462C114.125 22.1835 114.164 22.2209 114.202 22.2209H116.283C116.322 22.2209 116.36 22.1835 116.36 22.1462V8.13588C116.36 8.09852 116.322 8.06116 116.283 8.06116H113.162Z" fill="#8F9CA9"/>
<path d="M86.1879 8.06116H82.296H80.2151H76.2846C76.2461 8.06116 76.2075 8.09852 76.2075 8.13588V9.89183C76.2075 9.92919 76.2461 9.96655 76.2846 9.96655H80.0995V22.1462C80.0995 22.1835 80.138 22.2209 80.1766 22.2209H82.2574C82.296 22.2209 82.3345 22.1835 82.3345 22.1462V9.96655H86.1494C86.1879 9.96655 86.2265 9.92919 86.2265 9.89183V8.13588C86.265 8.09852 86.2265 8.06116 86.1879 8.06116Z" fill="#8F9CA9"/>
<path d="M98.5188 22.2209H100.407C100.445 22.2209 100.484 22.1836 100.484 22.1089L96.5535 8.06123C96.5535 8.02387 96.515 8.02386 96.4764 8.02386H95.7443H94.4727H93.7405C93.702 8.02386 93.6634 8.06123 93.6634 8.06123L89.7329 22.1089C89.7329 22.1462 89.7714 22.2209 89.81 22.2209H91.6982C91.7367 22.2209 91.7752 22.1836 91.7752 22.1836L92.9313 18.0739C92.9313 18.0365 92.9698 18.0365 93.0083 18.0365H97.2086C97.2471 18.0365 97.2857 18.0739 97.2857 18.0739L98.4417 22.1836C98.4417 22.1836 98.4802 22.2209 98.5188 22.2209ZM93.5093 16.0191L95.0507 10.527C95.0892 10.4523 95.1663 10.4523 95.2048 10.527L96.7462 16.0191C96.7462 16.0564 96.7076 16.1311 96.6691 16.1311H93.6249C93.5478 16.1311 93.5093 16.0564 93.5093 16.0191Z" fill="#8F9CA9"/>
<path d="M130.965 22.2209H132.853C132.892 22.2209 132.93 22.1836 132.93 22.1089L129 8.06123C129 8.02387 128.961 8.02386 128.922 8.02386H128.19H126.919H126.187C126.148 8.02386 126.109 8.06123 126.109 8.06123L122.179 22.1089C122.179 22.1462 122.217 22.2209 122.256 22.2209H124.144C124.183 22.2209 124.221 22.1836 124.221 22.1836L125.377 18.0739C125.377 18.0365 125.416 18.0365 125.454 18.0365H129.655C129.693 18.0365 129.732 18.0739 129.732 18.0739L130.888 22.1836C130.888 22.1836 130.926 22.2209 130.965 22.2209ZM125.955 16.0191L127.497 10.527C127.535 10.4523 127.612 10.4523 127.651 10.527L129.192 16.0191C129.192 16.0564 129.154 16.1311 129.115 16.1311H126.071C125.994 16.1311 125.955 16.0564 125.955 16.0191Z" fill="#8F9CA9"/>
<path d="M64.1461 20.1287V15.7948C64.1461 15.7575 64.1847 15.7201 64.2232 15.7201H69.8107C69.8492 15.7201 69.8878 15.6827 69.8878 15.6454V13.8894C69.8878 13.8521 69.8492 13.8147 69.8107 13.8147H64.2232C64.1847 13.8147 64.1461 13.7774 64.1461 13.74V10.0413C64.1461 10.0039 64.1847 9.96655 64.2232 9.96655H70.5428C70.5814 9.96655 70.6199 9.92919 70.6199 9.89183V8.13588C70.6199 8.09852 70.5814 8.06116 70.5428 8.06116H64.1461H61.9882C61.9497 8.06116 61.9111 8.09852 61.9111 8.13588V9.96655V13.8521V15.7575V20.2408V22.1462C61.9111 22.1835 61.9497 22.2209 61.9882 22.2209H64.1461H70.8126C70.8511 22.2209 70.8896 22.1835 70.8896 22.1462V20.3155C70.8896 20.2781 70.8511 20.2408 70.8126 20.2408H64.1847C64.1847 20.2034 64.1461 20.166 64.1461 20.1287Z" fill="#8F9CA9"/>
<path d="M164.297 22.0715L157.053 14.8235C157.014 14.7862 157.014 14.7488 157.053 14.7114L163.565 8.13595C163.603 8.09859 163.565 8.02386 163.526 8.02386H160.868C160.829 8.02386 160.829 8.02387 160.829 8.06123L155.28 13.6653C155.241 13.7027 155.164 13.6653 155.164 13.628V8.17331C155.164 8.13594 155.126 8.09859 155.087 8.09859H152.968C152.929 8.09859 152.891 8.13594 152.891 8.17331V22.1836C152.891 22.2209 152.929 22.2583 152.968 22.2583H155.049C155.087 22.2583 155.126 22.2209 155.126 22.1836V16.0191C155.126 15.9443 155.203 15.907 155.241 15.9817L161.484 22.2583L161.523 22.2957H164.181C164.297 22.2209 164.336 22.1089 164.297 22.0715Z" fill="#8F9CA9"/>
<path d="M31.122 0.514343L18.4827 9.63037L20.8333 4.25042L31.122 0.514343Z" fill="#E17726" stroke="#E17726" stroke-width="0.385345" stroke-linecap="round" stroke-linejoin="round"/>
<path d="M1.9126 0.514343L14.4748 9.70508L12.2398 4.25041L1.9126 0.514343Z" fill="#E27625" stroke="#E27625" stroke-width="0.385345" stroke-linecap="round" stroke-linejoin="round"/>
<path d="M26.5749 21.6231L23.1838 26.6294L30.4284 28.5722L32.4707 21.7352L26.5749 21.6231Z" fill="#E27625" stroke="#E27625" stroke-width="0.385345" stroke-linecap="round" stroke-linejoin="round"/>
<path d="M0.602539 21.7352L2.64487 28.5722L9.85083 26.6294L6.49833 21.6231L0.602539 21.7352Z" fill="#E27625" stroke="#E27625" stroke-width="0.385345" stroke-linecap="round" stroke-linejoin="round"/>
<path d="M9.46547 13.1796L7.46167 16.1311L14.5906 16.43L14.3594 8.95782L9.46547 13.1796Z" fill="#E27625" stroke="#E27625" stroke-width="0.385345" stroke-linecap="round" stroke-linejoin="round"/>
<path d="M23.6075 13.1796L18.6366 8.88312L18.4824 16.43L25.6113 16.1311L23.6075 13.1796Z" fill="#E27625" stroke="#E27625" stroke-width="0.385345" stroke-linecap="round" stroke-linejoin="round"/>
<path d="M9.85083 26.6295L14.1667 24.612L10.4288 21.7726L9.85083 26.6295Z" fill="#E27625" stroke="#E27625" stroke-width="0.385345" stroke-linecap="round" stroke-linejoin="round"/>
<path d="M18.9065 24.612L23.1838 26.6295L22.6058 21.7726L18.9065 24.612Z" fill="#E27625" stroke="#E27625" stroke-width="0.385345" stroke-linecap="round" stroke-linejoin="round"/>
<path d="M23.1841 26.6294L18.9067 24.6119L19.2536 27.3019L19.215 28.4601L23.1841 26.6294Z" fill="#D5BFB2" stroke="#D5BFB2" stroke-width="0.385345" stroke-linecap="round" stroke-linejoin="round"/>
<path d="M9.85107 26.6294L13.8587 28.4601L13.8201 27.3019L14.1669 24.6119L9.85107 26.6294Z" fill="#D5BFB2" stroke="#D5BFB2" stroke-width="0.385345" stroke-linecap="round" stroke-linejoin="round"/>
<path d="M13.9357 19.9793L10.3521 18.9705L12.8568 17.8497L13.9357 19.9793Z" fill="#233447" stroke="#233447" stroke-width="0.385345" stroke-linecap="round" stroke-linejoin="round"/>
<path d="M19.1379 19.9793L20.1784 17.8497L22.7216 18.9705L19.1379 19.9793Z" fill="#233447" stroke="#233447" stroke-width="0.385345" stroke-linecap="round" stroke-linejoin="round"/>
<path d="M9.85099 26.6295L10.4675 21.623L6.49854 21.7351L9.85099 26.6295Z" fill="#CC6228" stroke="#CC6228" stroke-width="0.385345" stroke-linecap="round" stroke-linejoin="round"/>
<path d="M22.606 21.623L23.184 26.6295L26.575 21.7351L22.606 21.623Z" fill="#CC6228" stroke="#CC6228" stroke-width="0.385345" stroke-linecap="round" stroke-linejoin="round"/>
<path d="M25.6116 16.1312L18.4827 16.4301L19.1378 19.9794L20.1782 17.8498L22.7215 18.9706L25.6116 16.1312Z" fill="#CC6228" stroke="#CC6228" stroke-width="0.385345" stroke-linecap="round" stroke-linejoin="round"/>
<path d="M10.352 18.9704L12.8567 17.8496L13.9357 19.9791L14.5908 16.4299L7.46191 16.131L10.352 18.9704Z" fill="#CC6228" stroke="#CC6228" stroke-width="0.385345" stroke-linecap="round" stroke-linejoin="round"/>
<path d="M7.46191 16.1312L10.429 21.7727L10.3519 18.9706L7.46191 16.1312Z" fill="#E27525" stroke="#E27525" stroke-width="0.385345" stroke-linecap="round" stroke-linejoin="round"/>
<path d="M22.7216 18.9706L22.606 21.7727L25.6116 16.1312L22.7216 18.9706Z" fill="#E27525" stroke="#E27525" stroke-width="0.385345" stroke-linecap="round" stroke-linejoin="round"/>
<path d="M14.5909 16.43L13.9358 19.9792L14.745 24.201L14.9377 18.6343L14.5909 16.43Z" fill="#E27525" stroke="#E27525" stroke-width="0.385345" stroke-linecap="round" stroke-linejoin="round"/>
<path d="M18.4826 16.43L18.1357 18.6343L18.2899 24.201L19.1376 19.9792L18.4826 16.43Z" fill="#E27525" stroke="#E27525" stroke-width="0.385345" stroke-linecap="round" stroke-linejoin="round"/>
<path d="M19.138 19.9792L18.2903 24.201L18.9068 24.6119L22.6061 21.7726L22.7217 18.9705L19.138 19.9792Z" fill="#F5841F" stroke="#F5841F" stroke-width="0.385345" stroke-linecap="round" stroke-linejoin="round"/>
<path d="M10.3521 18.9705L10.4291 21.7726L14.1669 24.6119L14.7449 24.201L13.9357 19.9792L10.3521 18.9705Z" fill="#F5841F" stroke="#F5841F" stroke-width="0.385345" stroke-linecap="round" stroke-linejoin="round"/>
<path d="M19.2149 28.4601L19.2535 27.3019L18.9066 27.0404H14.1284L13.8201 27.3019L13.8586 28.4601L9.85107 26.6295L11.2383 27.7502L14.0899 29.6556H18.9452L21.7967 27.7502L23.184 26.6295L19.2149 28.4601Z" fill="#C0AC9D" stroke="#C0AC9D" stroke-width="0.385345" stroke-linecap="round" stroke-linejoin="round"/>
<path d="M18.9069 24.6121L18.2903 24.2011H14.7451L14.1671 24.6121L13.8203 27.302L14.1286 27.0405H18.9069L19.2537 27.302L18.9069 24.6121Z" fill="#8F9CA9" stroke="#8F9CA9" stroke-width="0.385345" stroke-linecap="round" stroke-linejoin="round"/>
<path d="M31.6616 10.2281L32.7406 5.18446L31.1222 0.514404L18.9067 9.33146L23.6079 13.1796L30.2359 15.0476L31.7002 13.4037L31.0836 12.9554L32.0855 12.0588L31.3148 11.461L32.3167 10.7138L31.6616 10.2281Z" fill="#763E1A" stroke="#763E1A" stroke-width="0.385345" stroke-linecap="round" stroke-linejoin="round"/>
<path d="M0.333008 5.18446L1.41197 10.2281L0.718352 10.7138L1.72025 11.461L0.949558 12.0588L1.98999 12.9554L1.3349 13.4037L2.79921 15.0476L9.46567 13.1796L14.1669 9.33146L1.91292 0.514404L0.333008 5.18446Z" fill="#763E1A" stroke="#763E1A" stroke-width="0.385345" stroke-linecap="round" stroke-linejoin="round"/>
<path d="M30.2358 15.0477L23.6079 13.1796L25.6116 16.1311L22.606 21.7726L26.575 21.7353H32.4708L30.2358 15.0477Z" fill="#F5841F" stroke="#F5841F" stroke-width="0.385345" stroke-linecap="round" stroke-linejoin="round"/>
<path d="M9.46542 13.1796L2.79899 15.0477L0.602539 21.7353H6.49828L10.4288 21.7726L7.46164 16.1311L9.46542 13.1796Z" fill="#F5841F" stroke="#F5841F" stroke-width="0.385345" stroke-linecap="round" stroke-linejoin="round"/>
<path d="M18.4828 16.4299L18.9067 9.33145L20.8334 4.25043H12.2402L14.1669 9.33145L14.5908 16.4299L14.745 18.6716V24.2009H18.2901V18.6716L18.4828 16.4299Z" fill="#F5841F" stroke="#F5841F" stroke-width="0.385345" stroke-linecap="round" stroke-linejoin="round"/>
</svg>
