<svg width="150" height="41" viewBox="0 0 150 41" fill="none" xmlns="http://www.w3.org/2000/svg">
<path d="M16.789 23.4941H14.9081C13.7796 23.4941 17.6249 28.7217 20.4045 29.3093C21.0314 29.4309 21.3449 29.7348 21.3449 30.3224V34.152C21.324 34.8814 20.8851 35.2259 20.1537 35.1245C14.8454 34.2735 10.9792 31.5179 8.57583 26.8373C8.22055 26.1687 7.94887 25.4798 7.73988 24.7504C7.3428 23.5549 7.30101 23.4941 5.98439 23.4536C4.3543 23.413 3.28846 22.6026 2.93319 21.164C2.53611 19.543 3.85273 17.841 5.60822 17.7397C5.859 17.7194 6.08888 17.7194 6.33967 17.7397C7.09202 17.8004 7.4891 17.3952 7.67718 16.7468C8.13695 15.1258 8.86841 13.5859 9.85064 12.2081C10.6657 11.0532 11.0837 11.0126 12.1077 11.965C12.8809 12.6944 13.6333 13.4644 14.4066 14.1938C14.9081 14.6598 15.0335 15.1664 14.5946 15.7337C14.3648 16.0376 14.1767 16.3618 14.0095 16.7063C13.6542 17.4155 13.8423 17.7194 14.6573 17.7194C16.0784 17.7397 17.4787 17.7194 18.9207 17.7194C20.4254 17.7397 21.533 18.6312 21.8883 20.0901C22.16 21.2653 21.4912 22.7039 20.1955 23.1699C19.4431 23.4536 18.5445 23.413 17.7085 23.4738C17.416 23.5144 17.1025 23.4941 16.789 23.4941Z" fill="#007EA4"/>
<path d="M23.0585 5.96728C27.9697 6.1699 32.2957 8.52029 35.2633 13.1198C36.2874 14.7205 35.9948 16.1996 34.5319 17.0709C32.9645 18.0434 31.209 17.6382 30.2268 16.0983C28.743 13.7682 26.6531 12.289 23.8736 11.7825C21.6583 11.3975 19.3595 11.8027 17.4368 12.9577C16.5591 13.4845 16.2874 13.4237 15.5559 12.7145L13.2153 10.4452C12.5465 9.75628 12.5674 9.29025 13.3616 8.72291C15.8485 6.96012 19.255 5.90649 23.0585 5.96728ZM23.2675 32.2268V30.2817C23.2257 29.8359 23.5392 29.451 23.999 29.3902C26.7994 28.8228 28.8683 27.3032 30.3312 24.9528C30.9791 23.8992 32.0031 23.4939 33.2153 23.6763C34.3229 23.8384 35.1797 24.3854 35.6604 25.3985C35.9739 26.0672 35.9321 26.8372 35.5768 27.4855C33.3406 31.5987 29.2236 34.4151 24.4796 35.0838C23.6646 35.1851 23.2884 34.9014 23.2675 34.1112C23.2466 33.5034 23.2675 32.8752 23.2675 32.2268Z" fill="#1AA64A"/>
<path d="M46.3399 14.7003V27.8098H43.7693V14.7003H39.5896V12.6133H50.4778V14.7003H46.3399Z" fill="#007EA4"/>
<path d="M50.4775 22.9063C50.4566 22.1971 50.6029 21.5082 50.9164 20.8801C51.1881 20.2317 51.6061 19.6644 52.1285 19.1781C52.651 18.6918 53.2571 18.3068 53.9258 18.0637C55.3051 17.5369 56.8307 17.5369 58.21 18.0637C58.8997 18.3271 59.5057 18.7323 60.0073 19.2389C60.5298 19.7252 60.9477 20.3128 61.2194 20.9611C61.7837 22.2579 61.8046 23.7168 61.2403 25.0135C60.9686 25.6619 60.5507 26.2293 60.0282 26.7155C58.9624 27.7286 57.5204 28.296 56.0157 28.2757C55.2842 28.2757 54.5737 28.1542 53.884 27.8907C53.2153 27.6273 52.5883 27.2424 52.0867 26.7358C51.5643 26.2495 51.1672 25.6619 50.8746 25.0135C50.6238 24.3449 50.4984 23.6357 50.4775 22.9063ZM59.234 22.9468C59.2549 22.0756 58.9415 21.2448 58.3145 20.6167C57.7502 20.0088 56.9352 19.6644 56.0784 19.6846C55.2215 19.6846 54.4274 20.0291 53.8422 20.6167C52.6092 21.9337 52.6092 23.9397 53.8422 25.2567C54.9916 26.4521 56.9352 26.5129 58.1682 25.3985C58.21 25.358 58.2727 25.3175 58.3145 25.2567C58.9415 24.6286 59.2549 23.7978 59.234 22.9468Z" fill="#007EA4"/>
<path d="M64.1662 27.8503V11.7419H66.4859V22.0756L70.7492 17.9827H73.6124L69.0147 22.3187L74.0721 27.83H71.0418L66.465 22.7442V27.83H64.1453V27.8503H64.1662Z" fill="#007EA4"/>
<path d="M74.3023 22.9063C74.2814 22.1971 74.4276 21.5082 74.7411 20.8801C75.0128 20.2317 75.4308 19.6644 75.9532 19.1781C76.4757 18.6918 77.0818 18.3068 77.7505 18.0637C79.1298 17.5369 80.6554 17.5369 82.0347 18.0637C82.7244 18.3271 83.3304 18.7323 83.832 19.2389C84.3545 19.7252 84.7724 20.3128 85.0441 20.9611C85.6084 22.2579 85.6293 23.7168 85.065 25.0135C84.7933 25.6619 84.3754 26.2293 83.8529 26.7155C82.7871 27.7286 81.3451 28.296 79.8404 28.2757C79.1089 28.2757 78.3984 28.1542 77.7087 27.8907C77.04 27.6273 76.413 27.2424 75.9114 26.7358C75.389 26.2495 74.9919 25.6619 74.6993 25.0135C74.4485 24.3449 74.3023 23.6357 74.3023 22.9063ZM83.0379 22.9468C83.0588 22.0756 82.7453 21.2448 82.1183 20.6167C81.5541 20.0088 80.739 19.6644 79.8822 19.6846C79.0253 19.6846 78.2312 20.0291 77.646 20.6167C76.4339 21.9337 76.4339 23.9397 77.646 25.2567C78.7954 26.4521 80.739 26.5129 81.972 25.3985C82.0138 25.358 82.0765 25.3175 82.1183 25.2567C82.7453 24.6286 83.0797 23.7978 83.0379 22.9468Z" fill="#007EA4"/>
<path d="M95.5561 20.7991C95.2217 20.4141 94.8037 20.1304 94.323 19.948C93.8424 19.7454 93.3199 19.6239 92.7974 19.6441C91.857 19.6441 91.0629 19.9278 90.4986 20.5356C89.9343 21.1435 89.6418 21.9135 89.6418 22.9063C89.6418 23.8992 89.9343 24.7299 90.4986 25.3378C91.0629 25.9456 91.8779 26.2293 92.9019 26.2293C93.4244 26.2496 93.9469 26.128 94.4066 25.9254C94.8664 25.7025 95.2635 25.3783 95.5561 24.9933V27.6071C95.1172 27.8503 94.6574 28.0124 94.1768 28.1339C93.6752 28.2555 93.1318 28.3163 92.6094 28.3163C91.0211 28.3163 89.7254 27.8097 88.7013 26.8372C87.6773 25.8646 87.2175 24.5678 87.2175 22.9874C87.2175 21.4069 87.74 20.1101 88.7849 19.1578C89.8298 18.2055 91.1882 17.699 92.8601 17.699C93.3617 17.699 93.8424 17.7395 94.323 17.8611C94.7619 17.9624 95.1799 18.1245 95.5561 18.3271V20.7991ZM100.258 19.5428C100.446 18.9755 100.781 18.4892 101.261 18.1042C101.7 17.78 102.244 17.6179 102.787 17.6382C103.121 17.6382 103.435 17.6787 103.748 17.7395C104.083 17.8205 104.396 17.9421 104.689 18.0839L103.853 19.9886C103.665 19.8467 103.435 19.7454 103.205 19.6846C102.954 19.6036 102.682 19.5631 102.432 19.5833C101.658 19.5833 101.115 19.867 100.76 20.4749C100.405 21.0827 100.237 22.0958 100.237 23.5142V27.8503H97.9176V17.9826H100.237V19.5428H100.258Z" fill="#1AA64A"/>
<path d="M107.782 32.47H105.378L108.179 26.979L104.438 17.9624H107.029L108.889 23.0482L109.182 23.9802C109.266 24.3044 109.328 24.6286 109.37 24.9731C109.558 24.4057 109.767 23.8587 110.039 23.3319L110.102 23.2103L112.609 17.9624H115.138L107.782 32.47ZM116.371 32.47V17.9827H118.691V19.6036C118.942 18.9958 119.401 18.4892 119.987 18.165C120.634 17.8003 121.366 17.6382 122.118 17.6382C123.393 17.5977 124.605 18.1448 125.399 19.0971C126.235 20.0697 126.653 21.3462 126.653 22.9064C126.653 24.5476 126.256 25.8646 125.42 26.8169C124.584 27.7692 123.456 28.2353 122.035 28.2353C120.676 28.2961 119.401 27.6477 118.67 26.5535V32.47H116.371ZM118.628 22.8861C118.628 23.8992 118.9 24.7097 119.401 25.3378C119.903 25.9254 120.676 26.2698 121.47 26.2496C122.348 26.2496 123.038 25.9659 123.518 25.3986C123.999 24.8312 124.25 24.0208 124.25 22.9671C124.25 21.9135 123.999 21.1233 123.498 20.5357C122.975 19.9481 122.223 19.6239 121.429 19.6442C120.551 19.6442 119.861 19.9278 119.381 20.5154C118.9 21.103 118.628 21.873 118.628 22.8861ZM129.704 27.8503V19.9684H127.928V17.9827H129.704V14.2545H132.024V17.9827H133.801V19.9684H132.024V27.8503H129.704ZM135.075 22.9064C135.055 22.1972 135.222 21.5083 135.514 20.8801C136.079 19.5834 137.165 18.5703 138.503 18.0637C139.882 17.5369 141.408 17.5369 142.787 18.0637C143.477 18.3271 144.083 18.7324 144.584 19.2389C145.107 19.7252 145.525 20.3128 145.796 20.9612C146.361 22.258 146.382 23.7168 145.817 25.0136C145.546 25.662 145.128 26.2293 144.605 26.7156C143.539 27.7287 142.097 28.2758 140.593 28.2758C139.861 28.2758 139.151 28.1542 138.461 27.8908C137.792 27.6274 137.165 27.2424 136.664 26.7359C136.141 26.2496 135.744 25.662 135.452 25.0136C135.201 24.3247 135.055 23.6155 135.075 22.9064ZM143.832 22.9469C143.853 22.0756 143.518 21.2449 142.892 20.6167C142.327 20.0089 141.512 19.6644 140.655 19.6847C139.799 19.6847 139.004 20.0291 138.419 20.6167C137.207 21.9338 137.207 23.9397 138.419 25.2567C139.569 26.4522 141.512 26.513 142.745 25.3986C142.787 25.3581 142.85 25.3175 142.892 25.2567C143.498 24.6286 143.832 23.7979 143.832 22.9469Z" fill="#1AA64A"/>
</svg>
