<svg width="140" height="35" viewBox="0 0 140 35" fill="none" xmlns="http://www.w3.org/2000/svg">
<path d="M46.9663 13.9458H43.1709V11.7771H53.5063V13.9458H49.7109V23.2767H46.9663V13.9458ZM56.1066 15.605C56.4227 15.1777 56.8465 14.8546 57.3772 14.6355C57.9193 14.4167 58.5405 14.307 59.2409 14.307V16.6728C58.9475 16.6508 58.7497 16.6398 58.6479 16.6398C57.8911 16.6398 57.2981 16.8479 56.8688 17.2641C56.4395 17.6693 56.2249 18.2826 56.2249 19.104V23.2767H53.5818V14.4384H56.1066V15.605ZM69.0459 14.4384V23.2767H66.538V22.2252C66.1878 22.6084 65.7699 22.9042 65.2842 23.1123C64.7985 23.3094 64.2733 23.4081 63.7084 23.4081C62.5111 23.4081 61.5624 23.074 60.8621 22.406C60.1617 21.738 59.8116 20.7468 59.8116 19.4325V14.4384H62.4547V19.0547C62.4547 20.4784 63.0704 21.1904 64.3015 21.1904C64.934 21.1904 65.4424 20.9933 65.8267 20.5987C66.2105 20.1935 66.4025 19.5969 66.4025 18.8082V14.4384H69.0459ZM73.545 23.4081C72.7879 23.4081 72.048 23.3204 71.3253 23.1453C70.6023 22.9589 70.0261 22.7291 69.5968 22.4553L70.4781 20.6154C70.8847 20.8672 71.3759 21.0753 71.952 21.2394C72.5282 21.3928 73.093 21.4695 73.6465 21.4695C74.7647 21.4695 75.3241 21.2014 75.3241 20.6644C75.3241 20.4127 75.1713 20.2319 74.8666 20.1225C74.5615 20.0131 74.0926 19.9197 73.46 19.843C72.7146 19.7337 72.0989 19.6076 71.6132 19.4655C71.1275 19.3231 70.7041 19.071 70.3426 18.7098C69.9924 18.3483 69.8173 17.8337 69.8173 17.1654C69.8173 16.6071 69.9811 16.1142 70.3085 15.687C70.6473 15.2488 71.133 14.9093 71.7656 14.6685C72.4095 14.4277 73.1663 14.307 74.0362 14.307C74.6801 14.307 75.3182 14.3784 75.9508 14.5208C76.5947 14.6522 77.1258 14.8382 77.5437 15.079L76.6625 16.9026C75.8607 16.4647 74.9852 16.2456 74.0362 16.2456C73.4714 16.2456 73.048 16.3223 72.7656 16.4754C72.4832 16.6288 72.3418 16.8259 72.3418 17.067C72.3418 17.3408 72.4945 17.5322 72.7993 17.642C73.1044 17.7513 73.5901 17.8554 74.2563 17.9541C75.0021 18.0745 75.6119 18.2059 76.0863 18.3483C76.561 18.4797 76.9731 18.7262 77.3232 19.0877C77.6734 19.4488 77.8485 19.9528 77.8485 20.5987C77.8485 21.1463 77.6793 21.6339 77.3405 22.0608C77.0013 22.488 76.5042 22.8222 75.8493 23.063C75.2054 23.2931 74.4373 23.4081 73.545 23.4081ZM84.3423 22.8495C84.0826 23.0356 83.7607 23.178 83.3764 23.2767C83.0039 23.3641 82.6083 23.4081 82.1904 23.4081C81.1062 23.4081 80.2645 23.1397 79.666 22.6031C79.0785 22.0665 78.7847 21.2777 78.7847 20.2376V16.6071H77.3785V14.6355H78.7847V12.4838H81.4278V14.6355H83.6984V16.6071H81.4278V20.2045C81.4278 20.5771 81.5241 20.8672 81.7161 21.0753C81.9194 21.2724 82.2018 21.3711 82.5633 21.3711C82.9812 21.3711 83.3369 21.2614 83.6306 21.0423L84.3423 22.8495ZM106.704 11.7771L102.824 23.2767H99.8761L97.2667 15.4899L94.5727 23.2767H91.6413L87.7444 11.7771H90.5908L93.2679 19.8597L96.0638 11.7771H98.6051L101.316 19.9254L104.078 11.7771H106.704ZM110.032 14.307C111.444 14.307 112.529 14.6355 113.285 15.2928C114.042 15.9388 114.42 16.9189 114.42 18.2332V23.2767H111.947V22.1759C111.45 22.9973 110.524 23.4081 109.168 23.4081C108.468 23.4081 107.858 23.2931 107.338 23.063C106.83 22.8332 106.44 22.5154 106.169 22.1102C105.898 21.705 105.762 21.2451 105.762 20.7301C105.762 19.9091 106.079 19.2628 106.711 18.7919C107.355 18.321 108.343 18.0855 109.676 18.0855H111.777C111.777 17.5269 111.602 17.0997 111.252 16.8042C110.902 16.4974 110.377 16.344 109.676 16.344C109.191 16.344 108.71 16.4207 108.236 16.5741C107.773 16.7165 107.378 16.9136 107.05 17.1654L106.101 15.3748C106.598 15.0353 107.191 14.7725 107.88 14.5865C108.58 14.4 109.298 14.307 110.032 14.307ZM109.829 21.6829C110.281 21.6829 110.682 21.5846 111.032 21.3875C111.382 21.1794 111.631 20.8782 111.777 20.484V19.5802H109.964C108.88 19.5802 108.338 19.9254 108.338 20.6154C108.338 20.9439 108.468 21.2067 108.727 21.4038C108.998 21.5899 109.366 21.6829 109.829 21.6829ZM115.796 11.0874H118.439V23.2767H115.796V11.0874ZM119.876 11.0874H122.519V23.2767H119.876V11.0874ZM132.885 18.8902C132.885 18.9233 132.868 19.1534 132.834 19.5802H125.938C126.062 20.1278 126.356 20.5604 126.819 20.8782C127.283 21.1957 127.858 21.3544 128.548 21.3544C129.022 21.3544 129.44 21.2888 129.801 21.1574C130.174 21.0149 130.519 20.7962 130.835 20.5004L132.241 21.9788C131.383 22.9316 130.129 23.4081 128.48 23.4081C127.452 23.4081 126.543 23.2164 125.752 22.8332C124.961 22.4386 124.351 21.8967 123.922 21.2067C123.493 20.5167 123.278 19.7337 123.278 18.8576C123.278 17.9925 123.487 17.2147 123.905 16.5247C124.334 15.8241 124.916 15.2818 125.65 14.8986C126.396 14.5041 127.226 14.307 128.141 14.307C129.033 14.307 129.841 14.4934 130.564 14.8656C131.287 15.2381 131.852 15.7747 132.258 16.4754C132.676 17.1654 132.885 17.9705 132.885 18.8902ZM128.158 16.2456C127.559 16.2456 127.057 16.4097 126.65 16.7385C126.243 17.067 125.995 17.5159 125.904 18.0855H130.395C130.304 17.5269 130.056 17.0834 129.649 16.7549C129.242 16.4154 128.745 16.2456 128.158 16.2456ZM139.508 22.8495C139.248 23.0356 138.926 23.178 138.542 23.2767C138.169 23.3641 137.774 23.4081 137.356 23.4081C136.272 23.4081 135.43 23.1397 134.831 22.6031C134.244 22.0665 133.95 21.2777 133.95 20.2376V16.6071H132.544V14.6355H133.95V12.4838H136.594V14.6355H138.864V16.6071H136.594V20.2045C136.594 20.5771 136.689 20.8672 136.881 21.0753C137.085 21.2724 137.367 21.3711 137.729 21.3711C138.147 21.3711 138.503 21.2614 138.796 21.0423L139.508 22.8495Z" fill="#3375BB"/>
<path d="M23.8481 0.505371H12.3639C5.88067 0.505371 0.625 5.60094 0.625 11.8866V23.0211C0.625 29.3068 5.88067 34.4023 12.3639 34.4023H23.8481C30.3313 34.4023 35.587 29.3068 35.587 23.0211V11.8866C35.587 5.60094 30.3313 0.505371 23.8481 0.505371Z" fill="white" stroke="#DFE5EC" stroke-width="0.366284"/>
<path d="M1.96045 17.6987C1.96045 8.99984 9.23372 1.94824 18.2057 1.94824C27.1778 1.94824 34.4511 8.99984 34.4511 17.6987C34.4511 26.3975 27.1778 33.4492 18.2057 33.4492C9.23372 33.4492 1.96045 26.3975 1.96045 17.6987Z" fill="white"/>
<path d="M18.2151 8.28528C21.4933 10.9399 25.2529 10.7761 26.3268 10.7761C26.092 25.8726 24.3016 22.8789 18.2151 27.112C12.1287 22.8789 10.3497 25.8726 10.1147 10.7761C11.1776 10.7761 14.937 10.9399 18.2151 8.28528Z" stroke="#3375BB" stroke-width="2.22079" stroke-miterlimit="10" stroke-linecap="round" stroke-linejoin="round"/>
</svg>
