<svg width="18" height="24" viewBox="0 0 18 24" fill="none" xmlns="http://www.w3.org/2000/svg">
<path d="M11.25 0C6.13533 2.94696 6.74998 11.25 6.74998 11.25C6.74998 11.25 4.50001 10.5 4.50001 7.12502C1.81561 8.68158 0 11.6734 0 15C0 19.9706 4.02944 24 9.00001 24C13.9706 24 18 19.9706 18 15C18 7.68751 11.25 6.18749 11.25 0V0ZM9.79056 20.8989C7.98204 21.3498 6.15032 20.2492 5.69933 18.4406C5.24842 16.6321 6.34897 14.8003 8.15759 14.3494C12.5239 13.2607 13.0711 10.8054 13.0711 10.8054C13.0711 10.8054 15.2485 19.538 9.79056 20.8989Z" fill="#FF6D00"/>
</svg>
